<svg xmlns="http://www.w3.org/2000/svg" width="267" height="67" fill="none" viewBox="0 0 267 67">
  <path fill="#fff" d="M78.5 30.6l-3.05 3.69v9h-6.27V11.57h6.27v14l11-14h7.94l-11.7 14 12.09 17.74h-7.75l-8.46-12.72-.07.01zM110.31 21.13c4.71 0 8.05 2.42 8.05 9.08v13.13h-5.91V31.73c0-4-1.46-5.3-4.26-5.3-3.12 0-5.1 2-5.1 5.87v11.06h-5.85v-32.9h5.85v13.72h.08a9.311 9.311 0 017.1-3l.04-.05zM142.87 21.5v21.82h-5.85v-2.66h-.08a8.36 8.36 0 01-6.48 3c-4.72 0-8-2.4-8-9.05V21.5h5.85v11.61c0 4 1.17 5.33 3.9 5.33 2.55 0 4.84-2.12 4.84-6.35V21.5h5.82zM154.54 43.73a12.999 12.999 0 01-8.84-3.2l2.84-4a8.375 8.375 0 006 2.55c1.7 0 2.68-.74 2.68-1.81s-1.13-1.5-4-2.42c-3.6-1.18-6.72-2.88-6.72-7.09 0-4 3.41-6.55 7.86-6.55 2.908-.06 5.743.915 8 2.75l-2.83 4.28a7.81 7.81 0 00-5.22-2.31c-1 0-2.14.5-2.14 1.63 0 .92 1.14 1.55 3.28 2.36 4.73 1.74 7.5 2.77 7.5 7.07 0 3.86-2.75 6.78-8.46 6.78l.05-.04zM187.3 21.5v21.82h-5.56v-2.59h-.11a7.886 7.886 0 01-6.53 3c-6 0-10.45-4.47-10.45-11.21 0-6.74 4.43-11.35 10.28-11.35a8.242 8.242 0 016.44 2.84h.08v-2.47l5.85-.04zm-5.61 11c0-3.49-2.33-6.11-5.49-6.11s-5.61 2.38-5.61 6.11c0 3.53 2.31 6 5.58 6 3.04-.04 5.52-2.42 5.52-6z"/>
  <path fill="#F1AB6C" d="M206.14 21.13c5.85 0 10.28 4.72 10.28 11.35s-4.41 11.25-10.45 11.25a7.998 7.998 0 01-6.44-2.81h-.08V52.2h-5.85V21.5h5.85v2.51h.09a8.382 8.382 0 016.61-2.88h-.01zm4.31 11.37c0-3.73-2.46-6.11-5.58-6.11-3.36 0-5.7 2.62-5.7 6.11a5.611 5.611 0 001.533 4.252 5.616 5.616 0 004.167 1.748c3.32-.04 5.58-2.46 5.58-6zM241.45 21.5v21.82h-5.57v-2.59h-.11a7.849 7.849 0 01-6.52 3c-6 0-10.45-4.47-10.45-11.21 0-6.74 4.43-11.35 10.28-11.35a8.21 8.21 0 016.43 2.84h.09v-2.47l5.85-.04zm-5.61 11c0-3.49-2.33-6.11-5.5-6.11s-5.61 2.38-5.61 6.11c0 3.53 2.32 6 5.59 6 3.04-.04 5.53-2.42 5.53-6h-.01z"/>
  <path fill="#fff" d="M57.17 50.79L33.25 66.2 2.9 47.29A6.15 6.15 0 010 42.07V14.41a5.65 5.65 0 00.29 1.8 6.27 6.27 0 002.77 3.44l.09.06 54.02 31.08z"/>
  <path fill="#F1AB6C" d="M33.25 0v37L7.37 22.1l-4.19-2.37-.09-.06a6.27 6.27 0 01-2.77-3.44 5.65 5.65 0 01-.29-1.8v-.1a6.42 6.42 0 014.64-5.92L33.25 0zM266.45 21.5l-11.76 30.66h-6l3.89-10.19-8.73-20.47h6.11l5.34 13.51h.07l5-13.51h6.08z"/>
</svg>
